HIERARCHY
ROOT Hips
{
  OFFSET 52.4154 59.3118 -14.5014
  CHANNELS 6 Xposition Yposition Zposition Zrotation Xrotation Yrotation
  JOINT spine
  {
    OFFSET 0 7.4756 0.429885
    CHANNELS 3 Zrotation Xrotation Yrotation
    JOINT spine1
    {
      OFFSET 0 9.92301 0
      CHANNELS 3 Zrotation Xrotation Yrotation
      JOINT spine2
      {
        OFFSET 0 9.50804 0
        CHANNELS 3 Zrotation Xrotation Yrotation
        JOINT Neck
        {
          OFFSET 0 24.4111 1.16384
          CHANNELS 3 Zrotation Xrotation Yrotation
          JOINT Head
          {
            OFFSET 0 7.37523 0
            CHANNELS 3 Zrotation Xrotation Yrotation
            End Site
            {
              OFFSET 0 17.8522 -5.88741
            }
          }
        }
        JOINT RightShoulder
        {
          OFFSET -4.00356 10.2679 -0.557468
          CHANNELS 3 Zrotation Xrotation Yrotation
          JOINT RightArm
          {
            OFFSET 0 13.4673 0
            CHANNELS 3 Zrotation Xrotation Yrotation
            JOINT RightArmRoll
            {
              OFFSET 0 6.79857 0
              CHANNELS 3 Zrotation Xrotation Yrotation
              JOINT RightForeArm
              {
                OFFSET 0 19.8018 0
                CHANNELS 3 Zrotation Xrotation Yrotation
                JOINT RightForeArmRoll
                {
                  OFFSET 0 7.62905 0
                  CHANNELS 3 Zrotation Xrotation Yrotation
                  JOINT RightHand
                  {
                    OFFSET 0 15.3098 0
                    CHANNELS 3 Zrotation Xrotation Yrotation
                    End Site
                    {
                      OFFSET 0 0 0
                    }
                  }
                }
              }
            }
          }
        }
        JOINT LeftShoulder
        {
          OFFSET 4.00356 10.2679 -0.557468
          CHANNELS 3 Zrotation Xrotation Yrotation
          JOINT LeftArm
          {
            OFFSET 0 13.4673 0
            CHANNELS 3 Zrotation Xrotation Yrotation
            JOINT LeftArmRoll
            {
              OFFSET 0 6.79857 0
              CHANNELS 3 Zrotation Xrotation Yrotation
              JOINT LeftForeArm
              {
                OFFSET 0 19.8018 0
                CHANNELS 3 Zrotation Xrotation Yrotation
                JOINT LeftForeArmRoll
                {
                  OFFSET 0 7.62905 0
                  CHANNELS 3 Zrotation Xrotation Yrotation
                  JOINT LeftHand
                  {
                    OFFSET 0 15.3098 0
                    CHANNELS 3 Zrotation Xrotation Yrotation
                    End Site
                    {
                      OFFSET 0 0 0
                    }
                  }
                }
              }
            }
          }
        }
      }
    }
  }
  JOINT RightUpLeg
  {
    OFFSET -6.62609 -1.21505 -1.01927
    CHANNELS 3 Zrotation Xrotation Yrotation
    JOINT RightUpLegRoll
    {
      OFFSET 0 17.9517 0
      CHANNELS 3 Zrotation Xrotation Yrotation
      JOINT RightLeg
      {
        OFFSET 0 -22.2304 0
        CHANNELS 3 Zrotation Xrotation Yrotation
        JOINT RightLegRoll
        {
          OFFSET 0 22.3032 0
          CHANNELS 3 Zrotation Xrotation Yrotation
          JOINT RightFoot
          {
            OFFSET 0 18.5636 0
            CHANNELS 3 Zrotation Xrotation Yrotation
            JOINT RightToeBase
            {
              OFFSET 0 15.5183 0
              CHANNELS 3 Zrotation Xrotation Yrotation
              End Site
              {
                OFFSET 0.00657761 7.51538 -0.866263
              }
            }
          }
        }
      }
    }
  }
  JOINT LeftUpLeg
  {
    OFFSET 6.62609 -1.21505 -1.01927
    CHANNELS 3 Zrotation Xrotation Yrotation
    JOINT LeftUpLegRoll
    {
      OFFSET 0 17.9518 0
      CHANNELS 3 Zrotation Xrotation Yrotation
      JOINT LeftLeg
      {
        OFFSET 0 22.2303 0
        CHANNELS 3 Zrotation Xrotation Yrotation
        JOINT LeftLegRoll
        {
          OFFSET 0 22.5093 0
          CHANNELS 3 Zrotation Xrotation Yrotation
          JOINT LeftFoot
          {
            OFFSET 0 18.3575 0
            CHANNELS 3 Zrotation Xrotation Yrotation
            JOINT LeftToeBase
            {
              OFFSET 0 15.5183 0
              CHANNELS 3 Zrotation Xrotation Yrotation
              End Site
              {
                OFFSET -0.029478 7.51539 -0.866263
              }
            }
          }
        }
      }
    }
  }
}
MOTION
Frames: 10
Frame Time: 0.00208333
56.7797 93.9507 20.0626 -1.11767 -0.479213 1.68785 -0.0679747 -1.24213 -0.269251 -0.139207 1.51891 -0.521714 -0.132945 3.16395 -0.519697 -6.86021 8.70993 0.22047 8.41622 0.482087 -0.549141 70.3065 -3.437 -3.0366 103.278 18.5774 19.0207 2.32386e-005 1.50764e-006 1.60429e-006 4.94031 0.0387874 -1.19993 1.07556e-006 5.8827e-006 -3.03663 8.02959 -4.95141 0.697658 -70.4268 -4.12325 3.37968 -102.339 9.68368 -25.0836 3.18532e-006 -9.88841e-006 3.76803e-007 0.598045 -0.00361104 0.883182 1.21908e-005 2.56489e-006 3.03851 -8.03028 -4.95137 -0.697654 -175.766 1.68392 -3.71598 180 7.01582e-015 179.089 177.99 5.57907 179.776 1.74921e-007 -2.09689e-006 0.029441 -18.0975 67.4155 19.0445 8.14589 25.2321 -3.49175 -177.042 6.08607 1.26754 4.54188e-006 -4.6773e-006 -0.965844 -3.42873 -11.2092 -0.0134853 3.03243e-007 -1.62171e-006 -0.167389 19.7096 69.475 -20.8114 -8.12667 25.2332 3.48355 
56.7652 93.9456 20.0078 -1.13394 -0.430777 1.72132 -0.0697995 -1.24526 -0.272588 -0.142903 1.51267 -0.528865 -0.136567 3.15771 -0.526788 -6.81282 8.70885 0.197178 8.39411 0.472494 -0.563026 70.3586 -3.42904 -3.03666 103.232 18.644 19.0014 2.32386e-005 1.50764e-006 1.60429e-006 4.95101 0.0387868 -1.20061 1.07556e-006 5.8827e-006 -3.03662 8.02959 -4.95141 0.697658 -70.4103 -4.12093 3.3774 -102.337 9.80586 -25.0691 3.18532e-006 -9.88841e-006 3.76803e-007 0.625803 -0.00361075 0.883312 1.21908e-005 2.56489e-006 3.03851 -8.03028 -4.95137 -0.697654 -175.751 1.74667 -3.73439 180 7.01582e-015 179.09 177.989 5.57355 179.775 1.74921e-007 -2.09689e-006 0.029441 -18.1002 67.4189 19.0473 8.14589 25.2321 -3.49175 -177.027 6.16124 1.26412 4.54188e-006 -4.6773e-006 -0.964636 -3.42623 -11.2136 -0.0131532 3.03243e-007 -1.62171e-006 -0.167389 19.7116 69.477 -20.8135 -8.12667 25.2332 3.48355 
56.7731 93.9458 19.9882 -1.14982 -0.382753 1.75549 -0.0717188 -1.24841 -0.276047 -0.146793 1.50636 -0.536274 -0.140379 3.15141 -0.534135 -6.76546 8.70923 0.173814 8.37175 0.461899 -0.577006 70.4111 -3.42091 -3.03666 103.186 18.7104 18.9818 2.32386e-005 1.50764e-006 1.60429e-006 4.96207 0.0387862 -1.20127 1.07556e-006 5.8827e-006 -3.03659 8.02959 -4.95141 0.697658 -70.3943 -4.1181 3.3749 -102.335 9.92793 -25.0544 3.18532e-006 -9.88841e-006 3.76803e-007 0.652893 -0.00361016 0.88347 1.21908e-005 2.56489e-006 3.03851 -8.03028 -4.95137 -0.697654 -175.738 1.80861 -3.75236 180 7.01583e-015 179.091 177.988 5.56778 179.775 1.74921e-007 -2.09689e-006 0.029441 -18.1029 67.4224 19.0502 8.14589 25.2321 -3.49175 -177.012 6.23557 1.26146 4.54188e-006 -4.6773e-006 -0.963441 -3.42329 -11.2175 -0.0127745 3.03243e-007 -1.62171e-006 -0.167389 19.7135 69.4791 -20.8155 -8.12667 25.2332 3.48355 
56.7716 93.9453 19.9526 -1.16545 -0.335018 1.79015 -0.0737044 -1.2516 -0.279591 -0.150818 1.50001 -0.543864 -0.144324 3.14505 -0.541661 -6.7181 8.71063 0.150399 8.34922 0.450602 -0.591052 70.4639 -3.41266 -3.03662 103.139 18.7765 18.9621 2.32386e-005 1.50764e-006 1.60429e-006 4.97338 0.0387855 -1.20192 1.07556e-006 5.8827e-006 -3.03656 8.02959 -4.95141 0.697658 -70.3786 -4.11492 3.37224 -102.332 10.0499 -25.0396 3.18532e-006 -9.88841e-006 3.76803e-007 0.679516 -0.00360937 0.883647 1.21908e-005 2.56489e-006 3.03851 -8.03028 -4.95137 -0.697654 -175.724 1.86999 -3.77002 180 7.01583e-015 179.093 177.987 5.56185 179.775 1.74921e-007 -2.09689e-006 0.029441 -18.1057 67.426 19.0532 8.14589 25.2321 -3.49175 -176.998 6.3093 1.25934 4.54188e-006 -4.6773e-006 -0.962255 -3.42007 -11.2211 -0.0123633 3.03243e-007 -1.62171e-006 -0.167389 19.7155 69.4812 -20.8176 -8.12667 25.2332 3.48355 
56.7741 93.9394 19.9239 -1.18096 -0.287449 1.8251 -0.0757281 -1.25479 -0.283184 -0.15492 1.49363 -0.551557 -0.148346 3.13867 -0.549289 -6.67075 8.71262 0.126954 8.32659 0.438904 -0.605136 70.5168 -3.40433 -3.03656 103.093 18.8425 18.9423 2.32386e-005 1.50764e-006 1.60429e-006 4.98484 0.0387848 -1.20257 1.07556e-006 5.8827e-006 -3.03652 8.02959 -4.95141 0.697658 -70.363 -4.11152 3.36949 -102.33 10.1719 -25.0247 3.18532e-006 -9.88841e-006 3.76803e-007 0.705871 -0.00360845 0.883837 1.21908e-005 2.56489e-006 3.03851 -8.03028 -4.95137 -0.697654 -175.711 1.93103 -3.78751 180 7.01583e-015 179.094 177.986 5.55582 179.775 1.74921e-007 -2.09689e-006 0.029441 -18.1086 67.4296 19.0562 8.14589 25.2321 -3.49175 -176.984 6.38269 1.25752 4.54188e-006 -4.6773e-006 -0.961074 -3.41667 -11.2244 -0.0119334 3.03243e-007 -1.62171e-006 -0.167389 19.7175 69.4832 -20.8197 -8.12667 25.2332 3.48355 
56.7751 93.9341 19.8755 -1.19649 -0.239923 1.86012 -0.0777616 -1.25799 -0.28679 -0.159044 1.48725 -0.559276 -0.152389 3.13229 -0.556942 -6.62341 8.71475 0.103501 8.30393 0.427105 -0.619229 70.5698 -3.39598 -3.03649 103.046 18.9084 18.9224 2.32386e-005 1.50764e-006 1.60429e-006 4.99633 0.0387841 -1.20322 1.07556e-006 5.8827e-006 -3.03649 8.02959 -4.95141 0.697658 -70.3475 -4.10808 3.36671 -102.327 10.2939 -25.0099 3.18532e-006 -9.88841e-006 3.76803e-007 0.73216 -0.0036075 0.884029 1.21908e-005 2.56489e-006 3.03851 -8.03028 -4.95137 -0.697654 -175.698 1.99199 -3.80496 180 7.01583e-015 179.095 177.985 5.54978 179.775 1.74921e-007 -2.09689e-006 0.029441 -18.1115 67.4332 19.0592 8.14589 25.2321 -3.49175 -176.97 6.456 1.25578 4.54188e-006 -4.6773e-006 -0.959894 -3.41323 -11.2277 -0.0114989 3.03243e-007 -1.62171e-006 -0.167389 19.7195 69.4853 -20.8218 -8.12667 25.2332 3.48355 
56.7748 93.9405 19.8476 -1.21216 -0.192316 1.895 -0.0797766 -1.26119 -0.29037 -0.163131 1.48088 -0.566943 -0.156395 3.12592 -0.564544 -6.57605 8.71659 0.0800627 8.28131 0.415508 -0.633303 70.6227 -3.38767 -3.03644 102.999 18.9745 18.9026 2.32386e-005 1.50764e-006 1.60429e-006 5.00775 0.0387834 -1.20387 1.07556e-006 5.8827e-006 -3.03645 8.02959 -4.95141 0.697658 -70.3319 -4.10474 3.36398 -102.324 10.416 -24.9953 3.18532e-006 -9.88841e-006 3.76803e-007 0.758583 -0.00360661 0.884215 1.21908e-005 2.56489e-006 3.03851 -8.03028 -4.95137 -0.697654 -175.684 2.05312 -3.8225 180 7.01584e-015 179.096 177.984 5.54378 179.775 1.74921e-007 -2.09689e-006 0.029441 -18.1143 67.4369 19.0622 8.14589 25.2321 -3.49175 -176.956 6.52947 1.25388 4.54188e-006 -4.6773e-006 -0.958712 -3.40987 -11.2311 -0.0110737 3.03243e-007 -1.62171e-006 -0.167389 19.7215 69.4874 -20.8239 -8.12667 25.2332 3.48355 
56.7734 93.9401 19.8092 -1.22811 -0.144506 1.92953 -0.081745 -1.26436 -0.29389 -0.167124 1.47454 -0.574481 -0.16031 3.11958 -0.572018 -6.52869 8.71769 0.0566611 8.25881 0.404411 -0.64733 70.6754 -3.37945 -3.03641 102.953 19.0407 18.8829 2.32386e-005 1.50764e-006 1.60429e-006 5.01899 0.0387828 -1.20453 1.07556e-006 5.8827e-006 -3.03642 8.02959 -4.95141 0.697658 -70.316 -4.10165 3.36137 -102.321 10.5382 -24.9809 3.18532e-006 -9.88841e-006 3.76803e-007 0.785339 -0.00360587 0.884387 1.21908e-005 2.56489e-006 3.03851 -8.03028 -4.95137 -0.697654 -175.671 2.11464 -3.84028 180 7.01584e-015 179.098 177.984 5.53789 179.775 1.74921e-007 -2.09689e-006 0.029441 -18.1171 67.4404 19.0652 8.14589 25.2321 -3.49175 -176.942 6.60338 1.25161 4.54188e-006 -4.6773e-006 -0.957524 -3.40673 -11.2348 -0.0106718 3.03243e-007 -1.62171e-006 -0.167389 19.7235 69.4895 -20.8259 -8.12667 25.2332 3.48355 
56.7738 93.9366 19.7759 -1.24447 -0.0963696 1.96349 -0.0836384 -1.26751 -0.297313 -0.170966 1.46826 -0.581813 -0.164074 3.11329 -0.579288 -6.48132 8.71763 0.0333183 8.23649 0.394117 -0.661281 70.7278 -3.37137 -3.03643 102.907 19.1072 18.8635 2.32386e-005 1.50764e-006 1.60429e-006 5.02994 0.0387821 -1.20519 1.07556e-006 5.8827e-006 -3.0364 8.02959 -4.95141 0.697658 -70.2999 -4.09898 3.35894 -102.32 10.6605 -24.967 3.18532e-006 -9.88841e-006 3.76803e-007 0.812629 -0.00360537 0.884537 1.21908e-005 2.56489e-006 3.03851 -8.03028 -4.95137 -0.697654 -175.656 2.17681 -3.85841 180 7.01584e-015 179.099 177.983 5.5322 179.775 1.74921e-007 -2.09689e-006 0.029441 -18.1198 67.4439 19.0681 8.14589 25.2321 -3.49175 -176.927 6.67796 1.24873 4.54188e-006 -4.6773e-006 -0.956325 -3.40393 -11.2388 -0.010307 3.03243e-007 -1.62171e-006 -0.167389 19.7255 69.4916 -20.828 -8.12667 25.2332 3.48355 
56.7739 93.9398 19.7541 -1.26137 -0.047783 1.99668 -0.0854286 -1.27062 -0.3006 -0.1746 1.46204 -0.58886 -0.167634 3.10708 -0.586277 -6.43393 8.71595 0.0100567 8.21444 0.384926 -0.675129 70.7797 -3.36349 -3.03651 102.862 19.1742 18.8445 2.32386e-005 1.50764e-006 1.60429e-006 5.0405 0.0387815 -1.20587 1.07556e-006 5.8827e-006 -3.03639 8.02959 -4.95141 0.697658 -70.2833 -4.09687 3.35675 -102.319 10.783 -24.9536 3.18532e-006 -9.88841e-006 3.76803e-007 0.840655 -0.0036052 0.884655 1.21908e-005 2.56489e-006 3.03851 -8.03028 -4.95137 -0.697654 -175.642 2.23986 -3.87704 180 7.01584e-015 179.1 177.982 5.52675 179.775 1.74921e-007 -2.09689e-006 0.029441 -18.1225 67.4472 19.0708 8.14589 25.2321 -3.49175 -176.911 6.75347 1.24502 4.54188e-006 -4.6773e-006 -0.955111 -3.40159 -11.2434 -0.00999341 3.03243e-007 -1.62171e-006 -0.167389 19.7274 69.4936 -20.83 -8.12667 25.2332 3.48355 
